<mxfile host="app.diagrams.net" modified="2024-03-21T09:26:37.152Z" agent="Mozilla/5.0 (Windows NT 10.0; Win64; x64) AppleWebKit/537.36 (KHTML, like Gecko) Chrome/123.0.0.0 Safari/537.36" etag="hdFPZXy6XbPy9RriKGq5" version="24.0.7" type="device" pages="2">
  <diagram name="Page-1" id="WtRPoXdYB8Cu78h8snsF">
    <mxGraphModel dx="3176" dy="1968" grid="1" gridSize="10" guides="1" tooltips="1" connect="1" arrows="1" fold="1" page="1" pageScale="1" pageWidth="3300" pageHeight="2100" math="0" shadow="0">
      <root>
        <mxCell id="0" />
        <mxCell id="1" parent="0" />
        <mxCell id="7OeomMHjesy9zzySiSFK-1" value="" style="rounded=1;whiteSpace=wrap;html=1;rotation=90;dashed=1;dashPattern=8 8;" parent="1" vertex="1">
          <mxGeometry x="560" y="362" width="940" height="658" as="geometry" />
        </mxCell>
        <mxCell id="7OeomMHjesy9zzySiSFK-2" value="" style="sketch=0;outlineConnect=0;fontColor=#232F3E;gradientColor=none;fillColor=#232F3D;strokeColor=none;dashed=0;verticalLabelPosition=bottom;verticalAlign=top;align=center;html=1;fontSize=12;fontStyle=0;aspect=fixed;pointerEvents=1;shape=mxgraph.aws4.mobile_client;" parent="1" vertex="1">
          <mxGeometry x="1145.84" y="300" width="88.31" height="168" as="geometry" />
        </mxCell>
        <mxCell id="7OeomMHjesy9zzySiSFK-10" value="" style="ellipse;whiteSpace=wrap;html=1;aspect=fixed;fillColor=#f8cecc;strokeColor=#b85450;" parent="1" vertex="1">
          <mxGeometry x="1065" y="432" width="42" height="42" as="geometry" />
        </mxCell>
        <mxCell id="7OeomMHjesy9zzySiSFK-42" value="&lt;b&gt;&lt;font style=&quot;font-size: 52px;&quot;&gt;A&lt;/font&gt;&lt;/b&gt;" style="text;html=1;align=center;verticalAlign=middle;resizable=0;points=[];autosize=1;strokeColor=none;fillColor=none;" parent="1" vertex="1">
          <mxGeometry x="1160" y="344" width="60" height="80" as="geometry" />
        </mxCell>
        <mxCell id="7OeomMHjesy9zzySiSFK-46" value="&lt;font style=&quot;&quot;&gt;&lt;font style=&quot;font-size: 60px;&quot;&gt;&lt;b&gt;Python Client&lt;/b&gt;&lt;/font&gt;&lt;br&gt;&lt;/font&gt;" style="text;html=1;align=center;verticalAlign=middle;resizable=0;points=[];autosize=1;strokeColor=none;fillColor=none;" parent="1" vertex="1">
          <mxGeometry x="825" y="1230" width="410" height="90" as="geometry" />
        </mxCell>
        <mxCell id="7OeomMHjesy9zzySiSFK-47" value="" style="image;aspect=fixed;perimeter=ellipsePerimeter;html=1;align=center;shadow=0;dashed=0;spacingTop=3;image=img/lib/active_directory/generic_server.svg;" parent="1" vertex="1">
          <mxGeometry x="2700" y="1240" width="248" height="442.86" as="geometry" />
        </mxCell>
        <mxCell id="7OeomMHjesy9zzySiSFK-48" value="&lt;font style=&quot;&quot;&gt;&lt;b style=&quot;&quot;&gt;&lt;font style=&quot;font-size: 54px;&quot;&gt;Data Forwarding Server&lt;/font&gt;&lt;/b&gt;&lt;br&gt;&lt;/font&gt;" style="text;html=1;align=center;verticalAlign=middle;resizable=0;points=[];autosize=1;strokeColor=none;fillColor=none;" parent="1" vertex="1">
          <mxGeometry x="2520" y="1800" width="630" height="80" as="geometry" />
        </mxCell>
        <mxCell id="7OeomMHjesy9zzySiSFK-74" value="" style="strokeWidth=2;html=1;shape=mxgraph.flowchart.annotation_2;align=left;labelPosition=right;pointerEvents=1;rotation=0;" parent="1" vertex="1">
          <mxGeometry x="570" y="200" width="80" height="980" as="geometry" />
        </mxCell>
        <mxCell id="7OeomMHjesy9zzySiSFK-76" value="&lt;div style=&quot;&quot;&gt;&lt;font size=&quot;1&quot; style=&quot;&quot;&gt;&lt;b style=&quot;font-size: 57px;&quot;&gt;The number of clients in a room and the number of rooms are the parameters that can be&amp;nbsp; varied&lt;/b&gt;&lt;/font&gt;&lt;/div&gt;" style="text;html=1;align=left;verticalAlign=middle;whiteSpace=wrap;rounded=0;fontSize=20;" parent="1" vertex="1">
          <mxGeometry x="110" y="658" width="440" height="34" as="geometry" />
        </mxCell>
        <mxCell id="8bUGsMToVsrmqAZag_lK-1" value="" style="image;aspect=fixed;perimeter=ellipsePerimeter;html=1;align=center;shadow=0;dashed=0;spacingTop=3;image=img/lib/active_directory/generic_server.svg;" parent="1" vertex="1">
          <mxGeometry x="2680" y="115.14" width="248" height="442.86" as="geometry" />
        </mxCell>
        <mxCell id="8bUGsMToVsrmqAZag_lK-2" value="&lt;font style=&quot;&quot;&gt;&lt;font style=&quot;font-size: 52px;&quot;&gt;&lt;b&gt;Control Server&lt;/b&gt;&lt;/font&gt;&lt;br&gt;&lt;/font&gt;" style="text;html=1;align=center;verticalAlign=middle;resizable=0;points=[];autosize=1;strokeColor=none;fillColor=none;" parent="1" vertex="1">
          <mxGeometry x="2590" y="570.0000000000001" width="380" height="80" as="geometry" />
        </mxCell>
        <mxCell id="8bUGsMToVsrmqAZag_lK-3" value="" style="shape=flexArrow;endArrow=classic;html=1;rounded=0;width=27.5;endSize=16.575;fillColor=#dae8fc;strokeColor=#6c8ebf;" parent="1" edge="1">
          <mxGeometry width="50" height="50" relative="1" as="geometry">
            <mxPoint x="1480" y="378" as="sourcePoint" />
            <mxPoint x="2540" y="388" as="targetPoint" />
          </mxGeometry>
        </mxCell>
        <mxCell id="8bUGsMToVsrmqAZag_lK-4" value="" style="shape=flexArrow;endArrow=classic;startArrow=classic;html=1;rounded=0;width=12.5;startSize=14.174999999999999;startWidth=28.75;endWidth=28.75;endSize=14.174999999999999;fillColor=#dae8fc;strokeColor=#6c8ebf;" parent="1" edge="1">
          <mxGeometry width="100" height="100" relative="1" as="geometry">
            <mxPoint x="2810" y="710" as="sourcePoint" />
            <mxPoint x="2810" y="1210" as="targetPoint" />
            <Array as="points">
              <mxPoint x="2810" y="906" />
            </Array>
          </mxGeometry>
        </mxCell>
        <mxCell id="8bUGsMToVsrmqAZag_lK-6" value="&lt;font style=&quot;font-size: 56px;&quot;&gt;&lt;b&gt;Create / Join Requests&lt;/b&gt;&lt;/font&gt;" style="text;html=1;strokeColor=none;fillColor=none;align=center;verticalAlign=middle;whiteSpace=wrap;rounded=0;" parent="1" vertex="1">
          <mxGeometry x="1770" y="280" width="460" height="30" as="geometry" />
        </mxCell>
        <mxCell id="8bUGsMToVsrmqAZag_lK-7" value="&lt;font style=&quot;font-size: 68px;&quot;&gt;&lt;b&gt;IPC&lt;/b&gt;&lt;/font&gt;" style="text;html=1;align=center;verticalAlign=middle;resizable=0;points=[];autosize=1;strokeColor=none;fillColor=none;" parent="1" vertex="1">
          <mxGeometry x="2850" y="888" width="140" height="100" as="geometry" />
        </mxCell>
        <mxCell id="8bUGsMToVsrmqAZag_lK-8" value="" style="shape=image;html=1;verticalAlign=top;verticalLabelPosition=bottom;labelBackgroundColor=#ffffff;imageAspect=0;aspect=fixed;image=https://cdn0.iconfinder.com/data/icons/thin-line-icons-for-seo-and-development-1/64/Programming_Development_analysis-128.png" parent="1" vertex="1">
          <mxGeometry x="800" y="1500" width="460" height="460" as="geometry" />
        </mxCell>
        <mxCell id="8bUGsMToVsrmqAZag_lK-9" value="" style="shape=flexArrow;endArrow=classic;startArrow=classic;html=1;rounded=0;endWidth=30;endSize=14.7;startWidth=30;startSize=14.7;fillColor=#dae8fc;strokeColor=#6c8ebf;" parent="1" edge="1">
          <mxGeometry width="100" height="100" relative="1" as="geometry">
            <mxPoint x="1430" y="780" as="sourcePoint" />
            <mxPoint x="2600" y="1530" as="targetPoint" />
            <Array as="points" />
          </mxGeometry>
        </mxCell>
        <mxCell id="8bUGsMToVsrmqAZag_lK-10" value="&lt;font style=&quot;&quot;&gt;&lt;b style=&quot;&quot;&gt;&lt;font style=&quot;font-size: 64px;&quot;&gt;Audio transfer&lt;/font&gt;&lt;/b&gt;&lt;br&gt;&lt;/font&gt;" style="text;html=1;align=center;verticalAlign=middle;resizable=0;points=[];autosize=1;strokeColor=none;fillColor=none;" parent="1" vertex="1">
          <mxGeometry x="1900" y="978" width="460" height="90" as="geometry" />
        </mxCell>
        <mxCell id="8bUGsMToVsrmqAZag_lK-11" value="&lt;font style=&quot;font-size: 67px;&quot;&gt;&lt;b&gt;Plot the graph after each run&lt;/b&gt;&lt;/font&gt;" style="text;html=1;align=center;verticalAlign=middle;resizable=0;points=[];autosize=1;strokeColor=none;fillColor=none;" parent="1" vertex="1">
          <mxGeometry x="540" y="1940" width="940" height="90" as="geometry" />
        </mxCell>
        <mxCell id="ZdT4Io5s_0lF0psQiRW1-3" value="" style="sketch=0;outlineConnect=0;fontColor=#232F3E;gradientColor=none;fillColor=#232F3D;strokeColor=none;dashed=0;verticalLabelPosition=bottom;verticalAlign=top;align=center;html=1;fontSize=12;fontStyle=0;aspect=fixed;pointerEvents=1;shape=mxgraph.aws4.mobile_client;" parent="1" vertex="1">
          <mxGeometry x="1145.84" y="558" width="88.31" height="168" as="geometry" />
        </mxCell>
        <mxCell id="ZdT4Io5s_0lF0psQiRW1-4" value="&lt;b&gt;&lt;font style=&quot;font-size: 52px;&quot;&gt;B&lt;/font&gt;&lt;/b&gt;" style="text;html=1;align=center;verticalAlign=middle;resizable=0;points=[];autosize=1;strokeColor=none;fillColor=none;" parent="1" vertex="1">
          <mxGeometry x="1160" y="603" width="60" height="80" as="geometry" />
        </mxCell>
        <mxCell id="ZdT4Io5s_0lF0psQiRW1-5" value="" style="sketch=0;outlineConnect=0;fontColor=#232F3E;gradientColor=none;fillColor=#232F3D;strokeColor=none;dashed=0;verticalLabelPosition=bottom;verticalAlign=top;align=center;html=1;fontSize=12;fontStyle=0;aspect=fixed;pointerEvents=1;shape=mxgraph.aws4.mobile_client;" parent="1" vertex="1">
          <mxGeometry x="1145.84" y="940" width="88.31" height="168" as="geometry" />
        </mxCell>
        <mxCell id="ZdT4Io5s_0lF0psQiRW1-6" value="&lt;b&gt;&lt;font style=&quot;font-size: 52px;&quot;&gt;N&lt;/font&gt;&lt;/b&gt;" style="text;html=1;align=center;verticalAlign=middle;resizable=0;points=[];autosize=1;strokeColor=none;fillColor=none;" parent="1" vertex="1">
          <mxGeometry x="1160" y="984" width="60" height="80" as="geometry" />
        </mxCell>
        <mxCell id="ZdT4Io5s_0lF0psQiRW1-9" value="" style="ellipse;whiteSpace=wrap;html=1;aspect=fixed;fillColor=#d5e8d4;strokeColor=#82b366;" parent="1" vertex="1">
          <mxGeometry x="1065" y="292" width="42" height="42" as="geometry" />
        </mxCell>
        <mxCell id="ZdT4Io5s_0lF0psQiRW1-10" value="" style="ellipse;whiteSpace=wrap;html=1;aspect=fixed;fillColor=#dae8fc;strokeColor=#6c8ebf;" parent="1" vertex="1">
          <mxGeometry x="1065" y="362" width="42" height="42" as="geometry" />
        </mxCell>
        <mxCell id="ZdT4Io5s_0lF0psQiRW1-15" value="" style="ellipse;whiteSpace=wrap;html=1;aspect=fixed;fillColor=#f8cecc;strokeColor=#b85450;" parent="1" vertex="1">
          <mxGeometry x="1065" y="692" width="42" height="42" as="geometry" />
        </mxCell>
        <mxCell id="ZdT4Io5s_0lF0psQiRW1-16" value="" style="ellipse;whiteSpace=wrap;html=1;aspect=fixed;fillColor=#d5e8d4;strokeColor=#82b366;" parent="1" vertex="1">
          <mxGeometry x="1065" y="552" width="42" height="42" as="geometry" />
        </mxCell>
        <mxCell id="ZdT4Io5s_0lF0psQiRW1-17" value="" style="ellipse;whiteSpace=wrap;html=1;aspect=fixed;fillColor=#dae8fc;strokeColor=#6c8ebf;" parent="1" vertex="1">
          <mxGeometry x="1065" y="622" width="42" height="42" as="geometry" />
        </mxCell>
        <mxCell id="ZdT4Io5s_0lF0psQiRW1-18" value="" style="ellipse;whiteSpace=wrap;html=1;aspect=fixed;fillColor=#f8cecc;strokeColor=#b85450;" parent="1" vertex="1">
          <mxGeometry x="1075" y="1072" width="42" height="42" as="geometry" />
        </mxCell>
        <mxCell id="ZdT4Io5s_0lF0psQiRW1-19" value="" style="ellipse;whiteSpace=wrap;html=1;aspect=fixed;fillColor=#d5e8d4;strokeColor=#82b366;" parent="1" vertex="1">
          <mxGeometry x="1075" y="932" width="42" height="42" as="geometry" />
        </mxCell>
        <mxCell id="ZdT4Io5s_0lF0psQiRW1-20" value="" style="ellipse;whiteSpace=wrap;html=1;aspect=fixed;fillColor=#dae8fc;strokeColor=#6c8ebf;" parent="1" vertex="1">
          <mxGeometry x="1075" y="1002" width="42" height="42" as="geometry" />
        </mxCell>
        <mxCell id="ZdT4Io5s_0lF0psQiRW1-23" value="" style="strokeWidth=2;html=1;shape=mxgraph.flowchart.annotation_2;align=left;labelPosition=right;pointerEvents=1;" parent="1" vertex="1">
          <mxGeometry x="990" y="300" width="50" height="190" as="geometry" />
        </mxCell>
        <mxCell id="ZdT4Io5s_0lF0psQiRW1-24" value="&lt;span style=&quot;font-size: 50px;&quot;&gt;&lt;b&gt;Client&amp;nbsp;&lt;/b&gt;&lt;/span&gt;&lt;div&gt;&lt;span style=&quot;font-size: 50px;&quot;&gt;&lt;b&gt;Sockets&lt;/b&gt;&lt;/span&gt;&lt;/div&gt;" style="text;html=1;align=center;verticalAlign=middle;resizable=0;points=[];autosize=1;strokeColor=none;fillColor=none;" parent="1" vertex="1">
          <mxGeometry x="745" y="330" width="220" height="130" as="geometry" />
        </mxCell>
        <mxCell id="ZdT4Io5s_0lF0psQiRW1-25" value="" style="endArrow=none;dashed=1;html=1;rounded=0;strokeWidth=8;" parent="1" edge="1">
          <mxGeometry width="50" height="50" relative="1" as="geometry">
            <mxPoint x="1188.33" y="916" as="sourcePoint" />
            <mxPoint x="1188.6599999999999" y="750" as="targetPoint" />
          </mxGeometry>
        </mxCell>
      </root>
    </mxGraphModel>
  </diagram>
  <diagram id="Taqc4TGG3Ts3ynHMNU9L" name="Page-2">
    <mxGraphModel dx="5456" dy="3172" grid="1" gridSize="10" guides="1" tooltips="1" connect="1" arrows="1" fold="1" page="1" pageScale="1" pageWidth="4400" pageHeight="4681" math="0" shadow="0">
      <root>
        <mxCell id="0" />
        <mxCell id="1" parent="0" />
        <mxCell id="UoHqMMg7sfBH9pSA1bAm-20" value="" style="image;points=[];aspect=fixed;html=1;align=center;shadow=0;dashed=0;image=img/lib/allied_telesis/computer_and_terminals/Personal_Computer_with_Server.svg;" vertex="1" parent="1">
          <mxGeometry x="1770" y="350" width="242.4" height="242.4" as="geometry" />
        </mxCell>
        <mxCell id="UoHqMMg7sfBH9pSA1bAm-21" value="" style="image;points=[];aspect=fixed;html=1;align=center;shadow=0;dashed=0;image=img/lib/allied_telesis/computer_and_terminals/Personal_Computer_with_Server.svg;" vertex="1" parent="1">
          <mxGeometry x="1770" y="870" width="242.4" height="242.4" as="geometry" />
        </mxCell>
        <mxCell id="UoHqMMg7sfBH9pSA1bAm-22" value="" style="image;points=[];aspect=fixed;html=1;align=center;shadow=0;dashed=0;image=img/lib/allied_telesis/computer_and_terminals/Personal_Computer_with_Server.svg;" vertex="1" parent="1">
          <mxGeometry x="1770" y="1680" width="242.4" height="242.4" as="geometry" />
        </mxCell>
        <mxCell id="UoHqMMg7sfBH9pSA1bAm-23" value="" style="endArrow=none;dashed=1;html=1;dashPattern=1 3;strokeWidth=12;rounded=0;" edge="1" parent="1">
          <mxGeometry width="50" height="50" relative="1" as="geometry">
            <mxPoint x="1910" y="1610" as="sourcePoint" />
            <mxPoint x="1910" y="1170" as="targetPoint" />
          </mxGeometry>
        </mxCell>
        <mxCell id="UoHqMMg7sfBH9pSA1bAm-25" value="&lt;font style=&quot;font-size: 49px;&quot;&gt;&lt;b style=&quot;&quot;&gt;IP : 10.129.131.120&lt;/b&gt;&lt;/font&gt;&lt;div style=&quot;font-size: 49px;&quot;&gt;&lt;br&gt;&lt;/div&gt;" style="text;html=1;align=center;verticalAlign=middle;whiteSpace=wrap;rounded=0;fontSize=19;" vertex="1" parent="1">
          <mxGeometry x="1195" y="350" width="560" height="380" as="geometry" />
        </mxCell>
        <mxCell id="UoHqMMg7sfBH9pSA1bAm-26" value="&lt;font style=&quot;font-size: 49px;&quot;&gt;&lt;b style=&quot;&quot;&gt;IP : 10.129.131.121&lt;/b&gt;&lt;/font&gt;&lt;div style=&quot;font-size: 49px;&quot;&gt;&lt;br&gt;&lt;/div&gt;" style="text;html=1;align=center;verticalAlign=middle;whiteSpace=wrap;rounded=0;fontSize=15;" vertex="1" parent="1">
          <mxGeometry x="1195" y="875" width="560" height="380" as="geometry" />
        </mxCell>
        <mxCell id="UoHqMMg7sfBH9pSA1bAm-27" value="&lt;font style=&quot;font-size: 51px;&quot;&gt;&lt;b style=&quot;&quot;&gt;IP : 10.129.131.130&lt;/b&gt;&lt;/font&gt;&lt;div style=&quot;font-size: 51px;&quot;&gt;&lt;br&gt;&lt;/div&gt;" style="text;html=1;align=center;verticalAlign=middle;whiteSpace=wrap;rounded=0;" vertex="1" parent="1">
          <mxGeometry x="1195" y="1810" width="560" height="120" as="geometry" />
        </mxCell>
        <mxCell id="UoHqMMg7sfBH9pSA1bAm-33" value="&lt;b&gt;Machine 1&lt;/b&gt;" style="text;html=1;align=center;verticalAlign=middle;resizable=0;points=[];autosize=1;strokeColor=none;fillColor=none;fontSize=50;" vertex="1" parent="1">
          <mxGeometry x="1360" y="400" width="230" height="70" as="geometry" />
        </mxCell>
        <mxCell id="UoHqMMg7sfBH9pSA1bAm-34" value="&lt;b&gt;Machine 2&lt;/b&gt;" style="text;html=1;align=center;verticalAlign=middle;resizable=0;points=[];autosize=1;strokeColor=none;fillColor=none;fontSize=54;" vertex="1" parent="1">
          <mxGeometry x="1360" y="920" width="230" height="70" as="geometry" />
        </mxCell>
        <mxCell id="UoHqMMg7sfBH9pSA1bAm-35" value="&lt;b&gt;&lt;font style=&quot;font-size: 52px;&quot;&gt;Machine N&lt;/font&gt;&lt;/b&gt;" style="text;html=1;align=center;verticalAlign=middle;resizable=0;points=[];autosize=1;strokeColor=none;fillColor=none;fontSize=43;" vertex="1" parent="1">
          <mxGeometry x="1340" y="1735" width="280" height="80" as="geometry" />
        </mxCell>
        <mxCell id="pvk0UwoPeuOl0px_2eja-3" value="" style="shape=ext;double=1;whiteSpace=wrap;html=1;aspect=fixed;" vertex="1" parent="1">
          <mxGeometry x="2340" y="373.59999999999997" width="218.8" height="218.8" as="geometry" />
        </mxCell>
        <mxCell id="pvk0UwoPeuOl0px_2eja-4" value="" style="endArrow=none;html=1;rounded=0;strokeWidth=4;" edge="1" parent="1">
          <mxGeometry width="50" height="50" relative="1" as="geometry">
            <mxPoint x="2558.8" y="420" as="sourcePoint" />
            <mxPoint x="2710" y="320" as="targetPoint" />
          </mxGeometry>
        </mxCell>
        <mxCell id="pvk0UwoPeuOl0px_2eja-5" value="" style="endArrow=none;html=1;rounded=0;strokeWidth=4;" edge="1" parent="1">
          <mxGeometry width="50" height="50" relative="1" as="geometry">
            <mxPoint x="2558.8" y="450" as="sourcePoint" />
            <mxPoint x="2729" y="450" as="targetPoint" />
          </mxGeometry>
        </mxCell>
        <mxCell id="pvk0UwoPeuOl0px_2eja-6" value="" style="endArrow=none;html=1;rounded=0;strokeWidth=4;" edge="1" parent="1">
          <mxGeometry width="50" height="50" relative="1" as="geometry">
            <mxPoint x="2558.8" y="510" as="sourcePoint" />
            <mxPoint x="2729" y="510" as="targetPoint" />
          </mxGeometry>
        </mxCell>
        <mxCell id="pvk0UwoPeuOl0px_2eja-7" value="" style="endArrow=none;html=1;rounded=0;strokeWidth=4;" edge="1" parent="1">
          <mxGeometry width="50" height="50" relative="1" as="geometry">
            <mxPoint x="2558.8" y="550" as="sourcePoint" />
            <mxPoint x="2710" y="640" as="targetPoint" />
          </mxGeometry>
        </mxCell>
        <mxCell id="pvk0UwoPeuOl0px_2eja-8" value="" style="rounded=1;whiteSpace=wrap;html=1;strokeWidth=3;" vertex="1" parent="1">
          <mxGeometry x="2710" y="280" width="61.2" height="70" as="geometry" />
        </mxCell>
        <mxCell id="pvk0UwoPeuOl0px_2eja-9" value="" style="rounded=1;whiteSpace=wrap;html=1;strokeWidth=3;" vertex="1" parent="1">
          <mxGeometry x="2720" y="410" width="61.2" height="70" as="geometry" />
        </mxCell>
        <mxCell id="pvk0UwoPeuOl0px_2eja-10" value="" style="rounded=1;whiteSpace=wrap;html=1;strokeWidth=3;" vertex="1" parent="1">
          <mxGeometry x="2720" y="500" width="61.2" height="70" as="geometry" />
        </mxCell>
        <mxCell id="pvk0UwoPeuOl0px_2eja-11" value="" style="rounded=1;whiteSpace=wrap;html=1;strokeWidth=3;" vertex="1" parent="1">
          <mxGeometry x="2710" y="620" width="61.2" height="70" as="geometry" />
        </mxCell>
        <mxCell id="pvk0UwoPeuOl0px_2eja-12" value="" style="shape=ext;double=1;whiteSpace=wrap;html=1;aspect=fixed;" vertex="1" parent="1">
          <mxGeometry x="2940" y="373.59999999999997" width="218.8" height="218.8" as="geometry" />
        </mxCell>
        <mxCell id="pvk0UwoPeuOl0px_2eja-13" value="" style="endArrow=none;html=1;rounded=0;strokeWidth=4;" edge="1" parent="1">
          <mxGeometry width="50" height="50" relative="1" as="geometry">
            <mxPoint x="3158.8" y="420" as="sourcePoint" />
            <mxPoint x="3310" y="320" as="targetPoint" />
          </mxGeometry>
        </mxCell>
        <mxCell id="pvk0UwoPeuOl0px_2eja-14" value="" style="endArrow=none;html=1;rounded=0;strokeWidth=4;" edge="1" parent="1">
          <mxGeometry width="50" height="50" relative="1" as="geometry">
            <mxPoint x="3158.8" y="450" as="sourcePoint" />
            <mxPoint x="3329" y="450" as="targetPoint" />
          </mxGeometry>
        </mxCell>
        <mxCell id="pvk0UwoPeuOl0px_2eja-15" value="" style="endArrow=none;html=1;rounded=0;strokeWidth=4;" edge="1" parent="1">
          <mxGeometry width="50" height="50" relative="1" as="geometry">
            <mxPoint x="3158.8" y="510" as="sourcePoint" />
            <mxPoint x="3329" y="510" as="targetPoint" />
          </mxGeometry>
        </mxCell>
        <mxCell id="pvk0UwoPeuOl0px_2eja-16" value="" style="endArrow=none;html=1;rounded=0;strokeWidth=4;" edge="1" parent="1">
          <mxGeometry width="50" height="50" relative="1" as="geometry">
            <mxPoint x="3158.8" y="550" as="sourcePoint" />
            <mxPoint x="3310" y="640" as="targetPoint" />
          </mxGeometry>
        </mxCell>
        <mxCell id="pvk0UwoPeuOl0px_2eja-17" value="" style="rounded=1;whiteSpace=wrap;html=1;strokeWidth=3;" vertex="1" parent="1">
          <mxGeometry x="3310" y="280" width="61.2" height="70" as="geometry" />
        </mxCell>
        <mxCell id="pvk0UwoPeuOl0px_2eja-18" value="" style="rounded=1;whiteSpace=wrap;html=1;strokeWidth=3;" vertex="1" parent="1">
          <mxGeometry x="3320" y="410" width="61.2" height="70" as="geometry" />
        </mxCell>
        <mxCell id="pvk0UwoPeuOl0px_2eja-19" value="" style="rounded=1;whiteSpace=wrap;html=1;strokeWidth=3;" vertex="1" parent="1">
          <mxGeometry x="3320" y="500" width="61.2" height="70" as="geometry" />
        </mxCell>
        <mxCell id="pvk0UwoPeuOl0px_2eja-20" value="" style="rounded=1;whiteSpace=wrap;html=1;strokeWidth=3;" vertex="1" parent="1">
          <mxGeometry x="3310" y="620" width="61.2" height="70" as="geometry" />
        </mxCell>
        <mxCell id="pvk0UwoPeuOl0px_2eja-21" value="" style="shape=ext;double=1;whiteSpace=wrap;html=1;aspect=fixed;" vertex="1" parent="1">
          <mxGeometry x="3570" y="383.59999999999997" width="218.8" height="218.8" as="geometry" />
        </mxCell>
        <mxCell id="pvk0UwoPeuOl0px_2eja-22" value="" style="endArrow=none;html=1;rounded=0;strokeWidth=4;" edge="1" parent="1">
          <mxGeometry width="50" height="50" relative="1" as="geometry">
            <mxPoint x="3788.8" y="430" as="sourcePoint" />
            <mxPoint x="3940" y="330" as="targetPoint" />
          </mxGeometry>
        </mxCell>
        <mxCell id="pvk0UwoPeuOl0px_2eja-23" value="" style="endArrow=none;html=1;rounded=0;strokeWidth=4;" edge="1" parent="1">
          <mxGeometry width="50" height="50" relative="1" as="geometry">
            <mxPoint x="3788.8" y="460" as="sourcePoint" />
            <mxPoint x="3959" y="460" as="targetPoint" />
          </mxGeometry>
        </mxCell>
        <mxCell id="pvk0UwoPeuOl0px_2eja-24" value="" style="endArrow=none;html=1;rounded=0;strokeWidth=4;" edge="1" parent="1">
          <mxGeometry width="50" height="50" relative="1" as="geometry">
            <mxPoint x="3788.8" y="520" as="sourcePoint" />
            <mxPoint x="3959" y="520" as="targetPoint" />
          </mxGeometry>
        </mxCell>
        <mxCell id="pvk0UwoPeuOl0px_2eja-25" value="" style="endArrow=none;html=1;rounded=0;strokeWidth=4;" edge="1" parent="1">
          <mxGeometry width="50" height="50" relative="1" as="geometry">
            <mxPoint x="3788.8" y="560" as="sourcePoint" />
            <mxPoint x="3940" y="650" as="targetPoint" />
          </mxGeometry>
        </mxCell>
        <mxCell id="pvk0UwoPeuOl0px_2eja-26" value="" style="rounded=1;whiteSpace=wrap;html=1;strokeWidth=3;" vertex="1" parent="1">
          <mxGeometry x="3940" y="290" width="61.2" height="70" as="geometry" />
        </mxCell>
        <mxCell id="pvk0UwoPeuOl0px_2eja-27" value="" style="rounded=1;whiteSpace=wrap;html=1;strokeWidth=3;" vertex="1" parent="1">
          <mxGeometry x="3950" y="420" width="61.2" height="70" as="geometry" />
        </mxCell>
        <mxCell id="pvk0UwoPeuOl0px_2eja-28" value="" style="rounded=1;whiteSpace=wrap;html=1;strokeWidth=3;" vertex="1" parent="1">
          <mxGeometry x="3950" y="510" width="61.2" height="70" as="geometry" />
        </mxCell>
        <mxCell id="pvk0UwoPeuOl0px_2eja-29" value="" style="rounded=1;whiteSpace=wrap;html=1;strokeWidth=3;" vertex="1" parent="1">
          <mxGeometry x="3940" y="630" width="61.2" height="70" as="geometry" />
        </mxCell>
        <mxCell id="pvk0UwoPeuOl0px_2eja-30" value="&lt;b&gt;&lt;font style=&quot;font-size: 51px;&quot;&gt;Room 1&lt;/font&gt;&lt;/b&gt;" style="text;html=1;align=center;verticalAlign=middle;resizable=0;points=[];autosize=1;strokeColor=none;fillColor=none;fontSize=45;" vertex="1" parent="1">
          <mxGeometry x="2345" y="448" width="210" height="70" as="geometry" />
        </mxCell>
        <mxCell id="pvk0UwoPeuOl0px_2eja-31" value="&lt;b&gt;&lt;font style=&quot;font-size: 53px;&quot;&gt;Room 2&lt;/font&gt;&lt;/b&gt;" style="text;html=1;align=center;verticalAlign=middle;resizable=0;points=[];autosize=1;strokeColor=none;fillColor=none;fontSize=46;" vertex="1" parent="1">
          <mxGeometry x="2940" y="453" width="220" height="80" as="geometry" />
        </mxCell>
        <mxCell id="pvk0UwoPeuOl0px_2eja-32" value="&lt;b&gt;&lt;font style=&quot;font-size: 54px;&quot;&gt;Room n&lt;/font&gt;&lt;/b&gt;" style="text;html=1;align=center;verticalAlign=middle;resizable=0;points=[];autosize=1;strokeColor=none;fillColor=none;fontSize=47;" vertex="1" parent="1">
          <mxGeometry x="3570" y="453" width="220" height="80" as="geometry" />
        </mxCell>
        <mxCell id="pvk0UwoPeuOl0px_2eja-33" value="" style="ellipse;whiteSpace=wrap;html=1;fillColor=none;dashed=1;strokeWidth=3;" vertex="1" parent="1">
          <mxGeometry x="3871.2" y="198" width="198.8" height="570" as="geometry" />
        </mxCell>
        <mxCell id="pvk0UwoPeuOl0px_2eja-34" value="&lt;b&gt;&lt;font style=&quot;font-size: 57px;&quot;&gt;Clients in each room&lt;/font&gt;&lt;/b&gt;" style="text;html=1;align=center;verticalAlign=middle;whiteSpace=wrap;rounded=0;fontSize=52;" vertex="1" parent="1">
          <mxGeometry x="3690" y="90" width="630.6" height="30" as="geometry" />
        </mxCell>
        <mxCell id="pvk0UwoPeuOl0px_2eja-35" style="edgeStyle=orthogonalEdgeStyle;rounded=0;orthogonalLoop=1;jettySize=auto;html=1;exitX=0.5;exitY=0;exitDx=0;exitDy=0;entryX=0.5;entryY=1;entryDx=0;entryDy=0;" edge="1" parent="1" source="pvk0UwoPeuOl0px_2eja-34" target="pvk0UwoPeuOl0px_2eja-34">
          <mxGeometry relative="1" as="geometry" />
        </mxCell>
        <mxCell id="pvk0UwoPeuOl0px_2eja-36" value="" style="shape=ext;double=1;whiteSpace=wrap;html=1;aspect=fixed;" vertex="1" parent="1">
          <mxGeometry x="2330" y="903.5999999999999" width="218.8" height="218.8" as="geometry" />
        </mxCell>
        <mxCell id="pvk0UwoPeuOl0px_2eja-37" value="" style="endArrow=none;html=1;rounded=0;strokeWidth=4;" edge="1" parent="1">
          <mxGeometry width="50" height="50" relative="1" as="geometry">
            <mxPoint x="2548.8" y="950" as="sourcePoint" />
            <mxPoint x="2700" y="850" as="targetPoint" />
          </mxGeometry>
        </mxCell>
        <mxCell id="pvk0UwoPeuOl0px_2eja-38" value="" style="endArrow=none;html=1;rounded=0;strokeWidth=4;" edge="1" parent="1">
          <mxGeometry width="50" height="50" relative="1" as="geometry">
            <mxPoint x="2548.8" y="980" as="sourcePoint" />
            <mxPoint x="2719" y="980" as="targetPoint" />
          </mxGeometry>
        </mxCell>
        <mxCell id="pvk0UwoPeuOl0px_2eja-39" value="" style="endArrow=none;html=1;rounded=0;strokeWidth=4;" edge="1" parent="1">
          <mxGeometry width="50" height="50" relative="1" as="geometry">
            <mxPoint x="2548.8" y="1040" as="sourcePoint" />
            <mxPoint x="2719" y="1040" as="targetPoint" />
          </mxGeometry>
        </mxCell>
        <mxCell id="pvk0UwoPeuOl0px_2eja-40" value="" style="endArrow=none;html=1;rounded=0;strokeWidth=4;" edge="1" parent="1">
          <mxGeometry width="50" height="50" relative="1" as="geometry">
            <mxPoint x="2548.8" y="1080" as="sourcePoint" />
            <mxPoint x="2700" y="1170" as="targetPoint" />
          </mxGeometry>
        </mxCell>
        <mxCell id="pvk0UwoPeuOl0px_2eja-41" value="" style="rounded=1;whiteSpace=wrap;html=1;strokeWidth=3;" vertex="1" parent="1">
          <mxGeometry x="2700" y="810" width="61.2" height="70" as="geometry" />
        </mxCell>
        <mxCell id="pvk0UwoPeuOl0px_2eja-42" value="" style="rounded=1;whiteSpace=wrap;html=1;strokeWidth=3;" vertex="1" parent="1">
          <mxGeometry x="2710" y="940" width="61.2" height="70" as="geometry" />
        </mxCell>
        <mxCell id="pvk0UwoPeuOl0px_2eja-43" value="" style="rounded=1;whiteSpace=wrap;html=1;strokeWidth=3;" vertex="1" parent="1">
          <mxGeometry x="2710" y="1030" width="61.2" height="70" as="geometry" />
        </mxCell>
        <mxCell id="pvk0UwoPeuOl0px_2eja-44" value="" style="rounded=1;whiteSpace=wrap;html=1;strokeWidth=3;" vertex="1" parent="1">
          <mxGeometry x="2700" y="1150" width="61.2" height="70" as="geometry" />
        </mxCell>
        <mxCell id="pvk0UwoPeuOl0px_2eja-45" value="&lt;b&gt;&lt;font style=&quot;font-size: 54px;&quot;&gt;Room 1&lt;/font&gt;&lt;/b&gt;" style="text;html=1;align=center;verticalAlign=middle;resizable=0;points=[];autosize=1;strokeColor=none;fillColor=none;fontSize=45;" vertex="1" parent="1">
          <mxGeometry x="2330" y="973" width="220" height="80" as="geometry" />
        </mxCell>
        <mxCell id="pvk0UwoPeuOl0px_2eja-46" value="" style="shape=ext;double=1;whiteSpace=wrap;html=1;aspect=fixed;" vertex="1" parent="1">
          <mxGeometry x="2330" y="1693.6" width="218.8" height="218.8" as="geometry" />
        </mxCell>
        <mxCell id="pvk0UwoPeuOl0px_2eja-47" value="" style="endArrow=none;html=1;rounded=0;strokeWidth=4;" edge="1" parent="1">
          <mxGeometry width="50" height="50" relative="1" as="geometry">
            <mxPoint x="2548.8" y="1740" as="sourcePoint" />
            <mxPoint x="2700" y="1640" as="targetPoint" />
          </mxGeometry>
        </mxCell>
        <mxCell id="pvk0UwoPeuOl0px_2eja-48" value="" style="endArrow=none;html=1;rounded=0;strokeWidth=4;" edge="1" parent="1">
          <mxGeometry width="50" height="50" relative="1" as="geometry">
            <mxPoint x="2548.8" y="1770" as="sourcePoint" />
            <mxPoint x="2719" y="1770" as="targetPoint" />
          </mxGeometry>
        </mxCell>
        <mxCell id="pvk0UwoPeuOl0px_2eja-49" value="" style="endArrow=none;html=1;rounded=0;strokeWidth=4;" edge="1" parent="1">
          <mxGeometry width="50" height="50" relative="1" as="geometry">
            <mxPoint x="2548.8" y="1830" as="sourcePoint" />
            <mxPoint x="2719" y="1830" as="targetPoint" />
          </mxGeometry>
        </mxCell>
        <mxCell id="pvk0UwoPeuOl0px_2eja-50" value="" style="endArrow=none;html=1;rounded=0;strokeWidth=4;" edge="1" parent="1">
          <mxGeometry width="50" height="50" relative="1" as="geometry">
            <mxPoint x="2548.8" y="1870" as="sourcePoint" />
            <mxPoint x="2700" y="1960" as="targetPoint" />
          </mxGeometry>
        </mxCell>
        <mxCell id="pvk0UwoPeuOl0px_2eja-51" value="" style="rounded=1;whiteSpace=wrap;html=1;strokeWidth=3;" vertex="1" parent="1">
          <mxGeometry x="2700" y="1600" width="61.2" height="70" as="geometry" />
        </mxCell>
        <mxCell id="pvk0UwoPeuOl0px_2eja-52" value="" style="rounded=1;whiteSpace=wrap;html=1;strokeWidth=3;" vertex="1" parent="1">
          <mxGeometry x="2710" y="1730" width="61.2" height="70" as="geometry" />
        </mxCell>
        <mxCell id="pvk0UwoPeuOl0px_2eja-53" value="" style="rounded=1;whiteSpace=wrap;html=1;strokeWidth=3;" vertex="1" parent="1">
          <mxGeometry x="2710" y="1820" width="61.2" height="70" as="geometry" />
        </mxCell>
        <mxCell id="pvk0UwoPeuOl0px_2eja-54" value="" style="rounded=1;whiteSpace=wrap;html=1;strokeWidth=3;" vertex="1" parent="1">
          <mxGeometry x="2700" y="1940" width="61.2" height="70" as="geometry" />
        </mxCell>
        <mxCell id="pvk0UwoPeuOl0px_2eja-55" value="&lt;b&gt;&lt;font style=&quot;font-size: 55px;&quot;&gt;Room 1&lt;/font&gt;&lt;/b&gt;" style="text;html=1;align=center;verticalAlign=middle;resizable=0;points=[];autosize=1;strokeColor=none;fillColor=none;fontSize=45;" vertex="1" parent="1">
          <mxGeometry x="2325" y="1763" width="230" height="80" as="geometry" />
        </mxCell>
        <mxCell id="pvk0UwoPeuOl0px_2eja-56" value="" style="endArrow=none;dashed=1;html=1;dashPattern=1 3;strokeWidth=9;rounded=0;" edge="1" parent="1">
          <mxGeometry width="50" height="50" relative="1" as="geometry">
            <mxPoint x="2880" y="1011.75" as="sourcePoint" />
            <mxPoint x="3900" y="1011.75" as="targetPoint" />
          </mxGeometry>
        </mxCell>
        <mxCell id="pvk0UwoPeuOl0px_2eja-57" value="" style="endArrow=none;dashed=1;html=1;dashPattern=1 3;strokeWidth=9;rounded=0;" edge="1" parent="1">
          <mxGeometry width="50" height="50" relative="1" as="geometry">
            <mxPoint x="2880" y="1801.75" as="sourcePoint" />
            <mxPoint x="3900" y="1801.75" as="targetPoint" />
          </mxGeometry>
        </mxCell>
        <mxCell id="pvk0UwoPeuOl0px_2eja-59" value="" style="strokeWidth=6;html=1;shape=mxgraph.flowchart.annotation_2;align=left;labelPosition=right;pointerEvents=1;strokeColor=#000000;" vertex="1" parent="1">
          <mxGeometry x="1050" y="300" width="130" height="1580" as="geometry" />
        </mxCell>
        <mxCell id="pvk0UwoPeuOl0px_2eja-60" value="&lt;div style=&quot;font-size: 53px;&quot;&gt;&lt;div style=&quot;&quot;&gt;&lt;b&gt;The number of machines can be&amp;nbsp;&lt;/b&gt;&lt;/div&gt;&lt;div style=&quot;&quot;&gt;&lt;b&gt;increased in progressive runs&lt;/b&gt;&lt;/div&gt;&lt;/div&gt;" style="text;html=1;align=center;verticalAlign=middle;resizable=0;points=[];autosize=1;strokeColor=none;fillColor=none;fontSize=56;" vertex="1" parent="1">
          <mxGeometry x="215" y="1020" width="850" height="140" as="geometry" />
        </mxCell>
        <mxCell id="pvk0UwoPeuOl0px_2eja-61" value="" style="endArrow=classic;html=1;rounded=0;exitX=0.5;exitY=0;exitDx=0;exitDy=0;strokeWidth=8;" edge="1" parent="1" source="pvk0UwoPeuOl0px_2eja-33">
          <mxGeometry width="50" height="50" relative="1" as="geometry">
            <mxPoint x="4070" y="380" as="sourcePoint" />
            <mxPoint x="3971" y="130" as="targetPoint" />
          </mxGeometry>
        </mxCell>
      </root>
    </mxGraphModel>
  </diagram>
</mxfile>
